{
  "accessors": [
    {
      "bufferView": 2,
      "componentType": 5126,
      "count": 14927,
      "max": [
        3.6344046592712402,
        1.2893402576446533,
        12.70486831665039
      ],
      "min": [
        -3.7800710201263428,
        -3.296708345413208,
        -0.794305145740509
      ],
      "type": "VEC3"
    },
    {
      "bufferView": 2,
      "byteOffset": 179124,
      "componentType": 5126,
      "count": 14927,
      "max": [
        0.9999703168869019,
        0.9999564290046692,
        0.9998729825019836
      ],
      "min": [
        -0.9999484419822693,
        -0.9999727606773376,
        -0.9999918341636658
      ],
      "type": "VEC3"
    },
    {
      "bufferView": 3,
      "componentType": 5126,
      "count": 14927,
      "max": [
        0.9999969601631165,
        0.9997749924659729,
        0.9998716711997986,
        1.0
      ],
      "min": [
        -0.9999963045120239,
        -0.9995597004890442,
        -0.999926745891571,
        -1.0
      ],
      "type": "VEC4"
    },
    {
      "bufferView": 1,
      "componentType": 5126,
      "count": 14927,
      "max": [
        0.9854599833488464,
        0.9455199837684631
      ],
      "min": [
        0.006149999797344208,
        0.008550000376999378
      ],
      "type": "VEC2"
    },
    {
      "bufferView": 0,
      "componentType": 5125,
      "count": 70788,
      "type": "SCALAR"
    }
  ],
  "asset": {
    "extras": {
      "author": "Rouker (https://sketchfab.com/Rouker)",
      "license": "CC-BY-4.0 (http://creativecommons.org/licenses/by/4.0/)",
      "source": "https://sketchfab.com/3d-models/bodybuilder-base-mesh-f9218d0b1a834c52acc93eb6a88934fe",
      "title": "bodybuilder base mesh"
    },
    "generator": "Sketchfab-13.46.0",
    "version": "2.0"
  },
  "bufferViews": [
    {
      "buffer": 0,
      "byteLength": 283152,
      "name": "floatBufferViews",
      "target": 34963
    },
    {
      "buffer": 0,
      "byteLength": 119416,
      "byteOffset": 283152,
      "byteStride": 8,
      "name": "floatBufferViews",
      "target": 34962
    },
    {
      "buffer": 0,
      "byteLength": 358248,
      "byteOffset": 402568,
      "byteStride": 12,
      "name": "floatBufferViews",
      "target": 34962
    },
    {
      "buffer": 0,
      "byteLength": 238832,
      "byteOffset": 760816,
      "byteStride": 16,
      "name": "floatBufferViews",
      "target": 34962
    }
  ],
  "buffers": [
    {
      "byteLength": 999648,
      "uri": "sport.bin"
    }
  ],
  "images": [
    {
      "uri": "textures/defaultMat_normal.png"
    }
  ],
  "materials": [
    {
      "doubleSided": true,
      "name": "defaultMat",
      "normalTexture": {
        "index": 0
      },
      "pbrMetallicRoughness": {
        "metallicFactor": 0.0,
        "roughnessFactor": 0.6
      }
    }
  ],
  "meshes": [
    {
      "name": "Object_0",
      "primitives": [
        {
          "attributes": {
            "NORMAL": 1,
            "POSITION": 0,
            "TANGENT": 2,
            "TEXCOORD_0": 3
          },
          "indices": 4,
          "material": 0,
          "mode": 4
        }
      ]
    }
  ],
  "nodes": [
    {
      "children": [
        1
      ],
      "matrix": [
        1.0,
        0.0,
        0.0,
        0.0,
        0.0,
        2.220446049250313e-16,
        -1.0,
        0.0,
        0.0,
        1.0,
        2.220446049250313e-16,
        0.0,
        0.0,
        0.0,
        0.0,
        1.0
      ],
      "name": "Sketchfab_model"
    },
    {
      "children": [
        2
      ],
      "name": "LOW body.obj.cleaner.materialmerger.gles"
    },
    {
      "mesh": 0,
      "name": "Object_2"
    }
  ],
  "samplers": [
    {
      "magFilter": 9729,
      "minFilter": 9987,
      "wrapS": 10497,
      "wrapT": 10497
    }
  ],
  "scene": 0,
  "scenes": [
    {
      "name": "Sketchfab_Scene",
      "nodes": [
        0
      ]
    }
  ],
  "textures": [
    {
      "sampler": 0,
      "source": 0
    }
  ]
}
