{
  "accessors": [
    {
      "bufferView": 2,
      "componentType": 5126,
      "count": 1860,
      "max": [
        1.1604294776916504,
        0.49756184220314026,
        0.7998017072677612
      ],
      "min": [
        -5.7803485105978325e-05,
        4.995115432393504e-12,
        -1.2753978645765884e-12
      ],
      "type": "VEC3"
    },
    {
      "bufferView": 2,
      "byteOffset": 22320,
      "componentType": 5126,
      "count": 1860,
      "max": [
        1.0,
        1.0,
        1.0
      ],
      "min": [
        -0.9995265007019043,
        -0.9999997019767761,
        -0.9963712096214294
      ],
      "type": "VEC3"
    },
    {
      "bufferView": 1,
      "componentType": 5126,
      "count": 1860,
      "max": [
        19.193389892578125,
        19.19280433654785
      ],
      "min": [
        -19.31787109375,
        -18.436662673950195
      ],
      "type": "VEC2"
    },
    {
      "bufferView": 0,
      "componentType": 5125,
      "count": 11028,
      "type": "SCALAR"
    },
    {
      "bufferView": 2,
      "byteOffset": 44640,
      "componentType": 5126,
      "count": 688,
      "max": [
        1.15529203414917,
        0.49256184697151184,
        0.803346574306488
      ],
      "min": [
        0.005349369719624519,
        0.009252728894352913,
        0.004999999888241291
      ],
      "type": "VEC3"
    },
    {
      "bufferView": 2,
      "byteOffset": 52896,
      "componentType": 5126,
      "count": 688,
      "max": [
        1.0,
        1.0,
        1.0
      ],
      "min": [
        -0.9987954497337341,
        -1.0,
        -1.0
      ],
      "type": "VEC3"
    },
    {
      "bufferView": 1,
      "byteOffset": 14880,
      "componentType": 5126,
      "count": 688,
      "max": [
        19.213390350341797,
        19.557348251342773
      ],
      "min": [
        -19.585126876831055,
        -18.93906021118164
      ],
      "type": "VEC2"
    },
    {
      "bufferView": 0,
      "byteOffset": 44112,
      "componentType": 5125,
      "count": 3900,
      "type": "SCALAR"
    }
  ],
  "asset": {
    "extras": {
      "author": "BenchK (https://sketchfab.com/benchk)",
      "license": "CC-BY-4.0 (http://creativecommons.org/licenses/by/4.0/)",
      "source": "https://sketchfab.com/3d-models/benchk-black-dip-bar-and-pull-up-bar-2in1-d8-2-cc8aab29c0954bc6ba48eda399328939",
      "title": "BENCHK: BLACK DIP BAR AND PULL-UP BAR 2IN1 D8 2"
    },
    "generator": "Sketchfab-12.66.0",
    "version": "2.0"
  },
  "bufferViews": [
    {
      "buffer": 0,
      "byteLength": 59712,
      "name": "floatBufferViews",
      "target": 34963
    },
    {
      "buffer": 0,
      "byteLength": 20384,
      "byteOffset": 59712,
      "byteStride": 8,
      "name": "floatBufferViews",
      "target": 34962
    },
    {
      "buffer": 0,
      "byteLength": 61152,
      "byteOffset": 80096,
      "byteStride": 12,
      "name": "floatBufferViews",
      "target": 34962
    }
  ],
  "buffers": [
    {
      "byteLength": 141248,
      "uri": "turnik.bin"
    }
  ],
  "materials": [
    {
      "doubleSided": true,
      "name": "PEN_MATERIAL89",
      "pbrMetallicRoughness": {
        "baseColorFactor": [
          0.016611413874132,
          0.016611413874132,
          0.016611413874132,
          1.0
        ],
        "metallicFactor": 0.0,
        "roughnessFactor": 0.4895198171
      }
    },
    {
      "doubleSided": true,
      "name": "Farba_-_Ciemnosz",
      "pbrMetallicRoughness": {
        "baseColorFactor": [
          0.290196,
          0.290196,
          0.290196,
          1.0
        ],
        "metallicFactor": 0.0,
        "roughnessFactor": 0.6
      }
    }
  ],
  "meshes": [
    {
      "name": "Object_0",
      "primitives": [
        {
          "attributes": {
            "NORMAL": 1,
            "POSITION": 0,
            "TEXCOORD_0": 2
          },
          "indices": 3,
          "material": 0,
          "mode": 4
        }
      ]
    },
    {
      "name": "Object_1",
      "primitives": [
        {
          "attributes": {
            "NORMAL": 5,
            "POSITION": 4,
            "TEXCOORD_0": 6
          },
          "indices": 7,
          "material": 1,
          "mode": 4
        }
      ]
    }
  ],
  "nodes": [
    {
      "children": [
        1
      ],
      "matrix": [
        1.0,
        0.0,
        0.0,
        0.0,
        0.0,
        2.220446049250313e-16,
        -1.0,
        0.0,
        0.0,
        1.0,
        2.220446049250313e-16,
        0.0,
        0.0,
        0.0,
        0.0,
        1.0
      ],
      "name": "Sketchfab_model"
    },
    {
      "children": [
        2
      ],
      "name": "acd05962bf884c028081482c8aeabcfa.3ds"
    },
    {
      "children": [
        3
      ],
      "matrix": [
        1.0,
        0.0,
        0.0,
        0.0,
        0.0,
        1.0,
        0.0,
        0.0,
        0.0,
        0.0,
        1.0,
        0.0,
        0.5849201083183289,
        0.27369245886802673,
        0.46936455368995667,
        1.0
      ],
      "name": "0      011"
    },
    {
      "children": [
        4,
        5
      ],
      "matrix": [
        1.0,
        0.0,
        0.0,
        0.0,
        0.0,
        1.0,
        0.0,
        0.0,
        0.0,
        0.0,
        1.0,
        0.0,
        -0.5849201083183289,
        -0.27369245886802673,
        -0.46936455368995667,
        1.0
      ],
      "name": "3DSMeshMatrix"
    },
    {
      "mesh": 0,
      "name": "Object_4"
    },
    {
      "mesh": 1,
      "name": "Object_5"
    }
  ],
  "scene": 0,
  "scenes": [
    {
      "name": "Sketchfab_Scene",
      "nodes": [
        0
      ]
    }
  ]
}
